PathFileType	4	(X/Y/Z)	E:/New_biomech_experiments/Elbow Flexion/Shreyas_25_06_24_elbow_flexion/Session 2024-06-26/Shreyas_ElbFlex_pp_staticPose.trc	
DataRate	CameraRate	NumFrames	NumMarkers	Units	OrigDataRate	OrigDataStartFrame	OrigNumFrames	
120.00	120.00	20	19	m	120.00	292	778	
Frame#	Time	MarkerSet_LFHD			MarkerSet_LBHD			MarkerSet_C7			MarkerSet_RBHD			MarkerSet_PRSHO			MarkerSet_RSHO			MarkerSet_STRN			MarkerSet_RFHD			MarkerSet_CLAV			MarkerSet_RWRA			MarkerSet_RWRB			MarkerSet_ARSHO			MarkerSet_RFRM			MarkerSet_RELB			MarkerSet_RUPA			MarkerSet_MRHAND			MarkerSet_T10			MarkerSet_RHAND			MarkerSet_MRELB			
		X1	Y1	Z1	X2	Y2	Z2	X3	Y3	Z3	X4	Y4	Z4	X5	Y5	Z5	X6	Y6	Z6	X7	Y7	Z7	X8	Y8	Z8	X9	Y9	Z9	X10	Y10	Z10	X11	Y11	Z11	X12	Y12	Z12	X13	Y13	Z13	X14	Y14	Z14	X15	Y15	Z15	X16	Y16	Z16	X17	Y17	Z17	X18	Y18	Z18	X19	Y19	Z19	

292	2.425	0.05177	1.83786	-0.05717	-0.05335	1.73642	-0.07717	-0.08201	1.54364	-0.01419	-0.06889	1.75563	0.05939	-0.10684	1.44714	0.11581	0.01186	1.50174	0.19666	0.15553	1.34496	-0.01606	0.03414	1.82227	0.06989	0.11506	1.46806	-0.00949	0.26224	1.19157	0.14192	0.28212	1.16780	0.23712	0.09543	1.45826	0.10181	0.15572	1.18549	0.24895	0.02164	1.18970	0.26910	0.01378	1.30842	0.24539	0.37487	1.15166	0.24158	-0.10176	1.33266	-0.02334	0.40085	1.19000	0.12660	0.01069	1.13713	0.16088 
293	2.433	0.05184	1.83786	-0.05715	-0.05329	1.73642	-0.07715	-0.08197	1.54364	-0.01414	-0.06883	1.75563	0.05942	-0.10681	1.44716	0.11585	0.01189	1.50174	0.19669	0.15555	1.34495	-0.01601	0.03421	1.82227	0.06991	0.11509	1.46805	-0.00945	0.26225	1.19155	0.14203	0.28212	1.16781	0.23724	0.09546	1.45825	0.10184	0.15573	1.18553	0.24907	0.02164	1.18973	0.26919	0.01380	1.30844	0.24545	0.37486	1.15165	0.24170	-0.10173	1.33267	-0.02328	0.40083	1.18999	0.12670	0.01069	1.13714	0.16097 
294	2.442	0.05191	1.83785	-0.05712	-0.05323	1.73641	-0.07713	-0.08192	1.54365	-0.01411	-0.06877	1.75564	0.05944	-0.10678	1.44717	0.11590	0.01193	1.50175	0.19673	0.15558	1.34496	-0.01594	0.03427	1.82227	0.06994	0.11512	1.46804	-0.00941	0.26227	1.19153	0.14214	0.28212	1.16782	0.23736	0.09549	1.45825	0.10188	0.15573	1.18555	0.24917	0.02164	1.18975	0.26928	0.01381	1.30846	0.24552	0.37485	1.15165	0.24183	-0.10171	1.33268	-0.02322	0.40082	1.18998	0.12680	0.01070	1.13715	0.16106 
295	2.450	0.05198	1.83784	-0.05708	-0.05318	1.73641	-0.07710	-0.08188	1.54366	-0.01407	-0.06872	1.75564	0.05947	-0.10674	1.44718	0.11595	0.01196	1.50176	0.19678	0.15562	1.34499	-0.01585	0.03434	1.82227	0.06996	0.11515	1.46803	-0.00936	0.26228	1.19151	0.14225	0.28212	1.16783	0.23748	0.09551	1.45825	0.10193	0.15572	1.18553	0.24925	0.02164	1.18978	0.26937	0.01382	1.30848	0.24558	0.37485	1.15164	0.24195	-0.10170	1.33269	-0.02316	0.40082	1.18995	0.12691	0.01072	1.13717	0.16114 
296	2.458	0.05205	1.83784	-0.05704	-0.05313	1.73641	-0.07705	-0.08185	1.54366	-0.01402	-0.06866	1.75565	0.05950	-0.10671	1.44718	0.11601	0.01200	1.50177	0.19683	0.15565	1.34501	-0.01577	0.03441	1.82227	0.06999	0.11518	1.46801	-0.00931	0.26230	1.19149	0.14236	0.28212	1.16783	0.23760	0.09554	1.45824	0.10198	0.15570	1.18549	0.24931	0.02164	1.18980	0.26946	0.01384	1.30850	0.24564	0.37484	1.15163	0.24208	-0.10168	1.33270	-0.02309	0.40082	1.18993	0.12703	0.01073	1.13718	0.16123 
297	2.467	0.05212	1.83783	-0.05701	-0.05308	1.73641	-0.07701	-0.08181	1.54366	-0.01397	-0.06860	1.75566	0.05956	-0.10668	1.44719	0.11607	0.01203	1.50177	0.19688	0.15568	1.34503	-0.01569	0.03447	1.82227	0.07003	0.11520	1.46801	-0.00926	0.26232	1.19148	0.14247	0.28212	1.16783	0.23771	0.09556	1.45824	0.10203	0.15568	1.18543	0.24935	0.02164	1.18982	0.26955	0.01386	1.30851	0.24571	0.37484	1.15161	0.24220	-0.10166	1.33271	-0.02302	0.40083	1.18991	0.12715	0.01074	1.13719	0.16132 
298	2.475	0.05217	1.83783	-0.05697	-0.05304	1.73642	-0.07695	-0.08177	1.54366	-0.01391	-0.06852	1.75567	0.05963	-0.10664	1.44719	0.11613	0.01206	1.50178	0.19693	0.15571	1.34507	-0.01559	0.03454	1.82227	0.07006	0.11523	1.46800	-0.00920	0.26233	1.19147	0.14258	0.28212	1.16784	0.23782	0.09559	1.45824	0.10208	0.15565	1.18537	0.24940	0.02165	1.18984	0.26964	0.01387	1.30852	0.24578	0.37485	1.15159	0.24232	-0.10164	1.33273	-0.02295	0.40083	1.18988	0.12726	0.01075	1.13720	0.16140 
299	2.483	0.05221	1.83783	-0.05694	-0.05300	1.73642	-0.07688	-0.08173	1.54365	-0.01384	-0.06845	1.75567	0.05970	-0.10661	1.44720	0.11620	0.01209	1.50178	0.19698	0.15575	1.34510	-0.01549	0.03460	1.82228	0.07010	0.11525	1.46799	-0.00914	0.26235	1.19146	0.14269	0.28212	1.16784	0.23793	0.09561	1.45824	0.10214	0.15563	1.18530	0.24945	0.02165	1.18985	0.26972	0.01389	1.30853	0.24584	0.37485	1.15158	0.24245	-0.10163	1.33274	-0.02287	0.40084	1.18986	0.12738	0.01077	1.13721	0.16149 
300	2.492	0.05225	1.83783	-0.05689	-0.05296	1.73643	-0.07681	-0.08170	1.54366	-0.01378	-0.06838	1.75568	0.05979	-0.10658	1.44720	0.11627	0.01212	1.50179	0.19704	0.15579	1.34513	-0.01540	0.03466	1.82228	0.07014	0.11528	1.46798	-0.00907	0.26237	1.19145	0.14280	0.28213	1.16784	0.23804	0.09563	1.45823	0.10220	0.15561	1.18525	0.24950	0.02166	1.18986	0.26981	0.01391	1.30854	0.24591	0.37486	1.15157	0.24257	-0.10161	1.33275	-0.02279	0.40084	1.18984	0.12750	0.01078	1.13722	0.16157 
301	2.500	0.05229	1.83784	-0.05685	-0.05292	1.73644	-0.07673	-0.08166	1.54365	-0.01371	-0.06831	1.75569	0.05988	-0.10654	1.44720	0.11634	0.01215	1.50179	0.19710	0.15581	1.34514	-0.01532	0.03472	1.82229	0.07019	0.11530	1.46798	-0.00901	0.26239	1.19144	0.14291	0.28213	1.16784	0.23814	0.09566	1.45823	0.10226	0.15560	1.18522	0.24958	0.02166	1.18987	0.26989	0.01394	1.30855	0.24598	0.37487	1.15156	0.24269	-0.10160	1.33277	-0.02270	0.40085	1.18982	0.12761	0.01079	1.13723	0.16165 
302	2.508	0.05231	1.83784	-0.05680	-0.05288	1.73645	-0.07665	-0.08162	1.54365	-0.01363	-0.06824	1.75569	0.05996	-0.10650	1.44720	0.11642	0.01219	1.50179	0.19715	0.15584	1.34515	-0.01524	0.03478	1.82229	0.07024	0.11533	1.46797	-0.00894	0.26241	1.19144	0.14301	0.28214	1.16785	0.23825	0.09569	1.45822	0.10232	0.15561	1.18521	0.24967	0.02167	1.18988	0.26997	0.01396	1.30855	0.24605	0.37488	1.15155	0.24281	-0.10159	1.33278	-0.02262	0.40085	1.18981	0.12772	0.01081	1.13723	0.16173 
303	2.517	0.05234	1.83786	-0.05675	-0.05283	1.73647	-0.07655	-0.08158	1.54365	-0.01356	-0.06819	1.75569	0.06005	-0.10646	1.44720	0.11650	0.01223	1.50179	0.19722	0.15587	1.34516	-0.01516	0.03483	1.82229	0.07029	0.11535	1.46796	-0.00888	0.26243	1.19143	0.14311	0.28215	1.16785	0.23835	0.09572	1.45822	0.10239	0.15562	1.18521	0.24977	0.02168	1.18989	0.27004	0.01399	1.30856	0.24612	0.37489	1.15155	0.24292	-0.10158	1.33280	-0.02253	0.40085	1.18980	0.12783	0.01083	1.13723	0.16182 
304	2.525	0.05237	1.83788	-0.05668	-0.05278	1.73649	-0.07645	-0.08154	1.54365	-0.01347	-0.06815	1.75569	0.06013	-0.10642	1.44721	0.11658	0.01226	1.50178	0.19728	0.15590	1.34516	-0.01509	0.03487	1.82229	0.07035	0.11537	1.46795	-0.00880	0.26245	1.19143	0.14321	0.28216	1.16785	0.23844	0.09575	1.45821	0.10246	0.15562	1.18518	0.24984	0.02169	1.18989	0.27012	0.01402	1.30856	0.24619	0.37491	1.15155	0.24303	-0.10156	1.33282	-0.02244	0.40086	1.18980	0.12794	0.01085	1.13722	0.16190 
305	2.533	0.05240	1.83790	-0.05661	-0.05273	1.73651	-0.07635	-0.08150	1.54364	-0.01338	-0.06811	1.75569	0.06021	-0.10637	1.44721	0.11666	0.01230	1.50178	0.19735	0.15594	1.34516	-0.01501	0.03491	1.82229	0.07042	0.11540	1.46795	-0.00873	0.26247	1.19143	0.14331	0.28218	1.16785	0.23853	0.09578	1.45820	0.10253	0.15563	1.18514	0.24991	0.02170	1.18989	0.27019	0.01405	1.30856	0.24625	0.37493	1.15155	0.24313	-0.10155	1.33283	-0.02235	0.40087	1.18980	0.12804	0.01088	1.13722	0.16198 
306	2.542	0.05242	1.83792	-0.05653	-0.05268	1.73653	-0.07625	-0.08146	1.54365	-0.01329	-0.06807	1.75568	0.06030	-0.10633	1.44721	0.11675	0.01235	1.50178	0.19742	0.15598	1.34517	-0.01494	0.03495	1.82229	0.07049	0.11542	1.46794	-0.00866	0.26249	1.19143	0.14340	0.28220	1.16786	0.23862	0.09581	1.45819	0.10260	0.15564	1.18511	0.24998	0.02171	1.18989	0.27026	0.01408	1.30856	0.24632	0.37495	1.15156	0.24323	-0.10154	1.33285	-0.02225	0.40088	1.18979	0.12814	0.01091	1.13721	0.16205 
307	2.550	0.05244	1.83795	-0.05645	-0.05264	1.73655	-0.07614	-0.08142	1.54366	-0.01321	-0.06804	1.75568	0.06038	-0.10628	1.44721	0.11684	0.01239	1.50177	0.19749	0.15601	1.34516	-0.01486	0.03498	1.82230	0.07056	0.11545	1.46794	-0.00858	0.26252	1.19143	0.14349	0.28222	1.16786	0.23871	0.09584	1.45818	0.10267	0.15565	1.18509	0.25006	0.02173	1.18988	0.27033	0.01411	1.30855	0.24639	0.37497	1.15156	0.24333	-0.10153	1.33287	-0.02216	0.40090	1.18979	0.12823	0.01094	1.13721	0.16213 
308	2.558	0.05245	1.83797	-0.05637	-0.05260	1.73655	-0.07604	-0.08139	1.54367	-0.01313	-0.06801	1.75567	0.06047	-0.10623	1.44721	0.11693	0.01244	1.50176	0.19757	0.15605	1.34516	-0.01479	0.03501	1.82230	0.07064	0.11548	1.46793	-0.00851	0.26254	1.19143	0.14357	0.28224	1.16786	0.23879	0.09588	1.45816	0.10274	0.15567	1.18508	0.25014	0.02175	1.18988	0.27040	0.01414	1.30855	0.24646	0.37500	1.15157	0.24343	-0.10152	1.33290	-0.02207	0.40091	1.18979	0.12832	0.01097	1.13720	0.16221 
309	2.567	0.05245	1.83798	-0.05628	-0.05257	1.73656	-0.07593	-0.08134	1.54367	-0.01303	-0.06799	1.75566	0.06056	-0.10618	1.44721	0.11703	0.01249	1.50176	0.19765	0.15608	1.34516	-0.01473	0.03503	1.82231	0.07072	0.11551	1.46793	-0.00843	0.26257	1.19143	0.14365	0.28227	1.16786	0.23887	0.09592	1.45814	0.10281	0.15570	1.18507	0.25022	0.02177	1.18987	0.27047	0.01418	1.30854	0.24653	0.37503	1.15157	0.24352	-0.10151	1.33292	-0.02197	0.40094	1.18979	0.12841	0.01100	1.13719	0.16228 
310	2.575	0.05246	1.83799	-0.05619	-0.05255	1.73656	-0.07583	-0.08130	1.54367	-0.01292	-0.06797	1.75565	0.06065	-0.10612	1.44721	0.11712	0.01255	1.50175	0.19774	0.15611	1.34515	-0.01466	0.03506	1.82232	0.07082	0.11555	1.46793	-0.00835	0.26260	1.19143	0.14373	0.28230	1.16787	0.23895	0.09596	1.45811	0.10288	0.15573	1.18505	0.25029	0.02180	1.18985	0.27054	0.01422	1.30853	0.24660	0.37506	1.15158	0.24360	-0.10150	1.33295	-0.02188	0.40096	1.18979	0.12849	0.01104	1.13718	0.16236 
311	2.583	0.05247	1.83800	-0.05609	-0.05253	1.73656	-0.07573	-0.08126	1.54368	-0.01282	-0.06795	1.75564	0.06075	-0.10607	1.44721	0.11722	0.01260	1.50174	0.19783	0.15615	1.34515	-0.01460	0.03508	1.82233	0.07092	0.11558	1.46793	-0.00828	0.26263	1.19143	0.14381	0.28234	1.16787	0.23902	0.09599	1.45807	0.10294	0.15576	1.18504	0.25037	0.02183	1.18984	0.27061	0.01426	1.30851	0.24668	0.37509	1.15159	0.24369	-0.10149	1.33297	-0.02179	0.40099	1.18979	0.12856	0.01107	1.13717	0.16243 
